/* XPM */
static char *ZmluaXNo[] = {
/* columns rows colors chars-per-pixel */
"128 128 25 1 ",
"  c #202020",
". c gray19",
"X c #4C2207",
"o c #004000",
"O c #006000",
"+ c #000040",
"@ c #00007F",
"# c #606060",
"$ c gray44",
"% c #833B00",
"& c #C00000",
"* c #8F571F",
"= c #FF5454",
"- c #1F8F57",
"; c #FFA400",
": c #C4947C",
"> c #1F578F",
", c #3F6F9F",
"< c #5F87AF",
"1 c #DFCFBF",
"2 c #BFCFDF",
"3 c #C0C0C0",
"4 c LightYellow",
"5 c #FEFEFE",
"6 c None",
/* pixels */
"666666666666666666666666666                                                                          666666666666666666666666666",
"666666666666666666666666666 ======================================================================== 666666666666666666666666666",
"666666666666666666666666666 &&&&&&&&&&&&&&&&&&&&&&&&&&&&&&&&&&&&&&&&&&&&&&&&&&&&&&&&&&&&&&&&&&&&&&&& 666666666666666666666666666",
"666666666666666666666666666                                                                          666666666666666666666666666",
"666666666666666666666666666 ======================================================================== 666666666666666666666666666",
"666666666666666666666666666 ======================================================================== 666666666666666666666666666",
"666666666666666666666666666 &&&&&&&&&&&&&&&&&&&&&&&&&&&&&&&&&&&&&&&&&&&&&&&&&&&&&&&&&&&&&&&&&&&&&&&& 666666666666666666666666666",
"666666666666666666666666666                                                                          666666666666666666666666666",
"666666666666666666666666666 ======================================================================== 666666666666666666666666666",
"666666666666666666666666666 ======================================================================== 666666666666666666666666666",
"666666666666666666666666666 &&&&&&&&&&&&&&&&&&&&&&&&&&&&&&&&&&&&&&&&&&&&&&&&&&&&&&&&&&&&&&&&&&&&&&&& 666666666666666666666666666",
"666666666666666666666666666                                                                          666666666666666666666666666",
"666666666666666666666666666 ======================================================================== 666666666666666666666666666",
"666666666666666666666666666 ======================================================================== 666666666666666666666666666",
"666666666666666666666666666 &&&&&&&&&&&&&&&&&&&&&&&&&&&&&&&&&&&&&&&&&&&&&&&&&&&&&&&&&&&&&&&&&&&&&&&& 666666666666666666666666666",
"666666666666666666666666666                                                                          666666666666666666666666666",
"666666666666666666666666666 ======================================================================== 666666666666666666666666666",
"666666666666666666666666666 ======================================================================== 666666666666666666666666666",
"666666666666666666666666666 &&&&&&&&&&&&&&&&&&&&&&&&&&&&&&&&&&&&&&&&&&&&&&&&&&&&&&&&&&&&&&&&&&&&&&&& 666666666666666666666666666",
"666666666666666666666666666                                                                          666666666666666666666666666",
"666666666666666666666666666 ======================================================================== 666666666666666666666666666",
"666666666666666666666666666 ======================================================================== 666666666666666666666666666",
"666666666666666666666666666 &&&&&&&&&&&&&&&&&&&&&&&&&&&&&&&&&&&&&&&&&&&&&&&&&&&&&&&&&&&&&&&&&&&&&&&& 666666666666666666666666666",
"666666666666666666666666666                                                                          666666666666666666666666666",
"666666666666666666666666666 ======================================================================== 666666666666666666666666666",
"666666666666666666666666666 ======================================================================== 666666666666666666666666666",
"666666666666666666666666666 &&&&&&&&&&&&&&&&&&&&&&&&&&&&&&&&&&&&&&&&&&&&&&&&&&&&&&&&&&&&&&&&&&&&&&&& 666666666666666666666666666",
"666666666666666666666666666                                                                          666666666666666666666666666",
"666666666666666666666666666 ======================================================================== 666666666666666666666666666",
"666666666666666666666666666 ======================================================================== 666666666666666666666666666",
"666666666666666666666666666 &&&&&&&&&&&&&&&&&&&&&&&&&&&&&&&&&&&&&&&&&&&&&&&&&&&&&&&&&&&&&&&&&&&&&&&& 666666666666666666666666666",
"666666666666666666666666666                                                                          666666666666666666666666666",
"                            $$$$$$$$$$$$$$$$$$$$$$$$$$$$$$$$$$$$$$$$$$$$$$$$$$$$$$$$$$$$$$$$$$$$$$$$                            ",
" :::::::::::::::::::::::::: $$$$$$$$$$$$$$$$$$$$$$$$$$$$$$$$$$$$$$$$$$$$$$$$$$$$$$$$$$$$$$$$$$$$$$$$ :::::::::::::::::::::::::: ",
" :                          $$$$$$..................$$$$$$$$$$$$$$$$$$$$$$$$..................$$$$$$                          : ",
" : XXXXXXXXXXXXXXXXXXXXXXXX $$$$$$..................$$$$$$$$$$$$$$$$$$$$$$$$..................$$$$$$ XXXXXXXXXXXXXXXXXXXXXXXX : ",
" : X%%%%X%%%%X%%%%%%%%X%%%X 333333..................333333333333333333333333..................333333 XXXXXXX%%X%%%%X%%%%X%%%% : ",
" : X%%%%X%%%%X%%%%%%%%X%%%X 333333.@@@@@@@..@@@@@@..333333333333333333333333..@@@@@@..@@@@@@@.333333 XXXXXXX%%X%%%%X%%%%X%%%% : ",
" : XXXXXXXXXXXXXXXXXXXXXXXX 333333.@@@@@@@..@@@@@@..333333333333333333333333..@@@@@@..@@@@@@@.333333                      XXX : ",
" : XXXXXXXXXXXXXXXXXXXXXXXX 333333.@@@@@@@..@@@@@@..333333333333333333333333..@@@@@@..@@@@@@@.333333  22222222222222222222XXX : ",
" : %%%%%%%X%%%%X%%%%X%%%%XX 333333.@@@@@@@..@@@@@@..333333333333333333333333..@@@@@@..@@@@@@@.333333  <<<<<<<<<<<<<<<<<<<<X%% : ",
" : %%%%%%%X%%%%X%%%%X%%%%XX 333333.@@@@@@@..@@@@@@..333333333333333333333333..@@@@@@..@@@@@@@.333333  <<<<<<<<<<<<<<<<<<<<X%% : ",
" : XXXXXXXXXXXXXXXXXXXXXXXX 333333.@@@@@@@..@@@@@@..333333333333333333333333..@@@@@@..@@@@@@@.333333  <<<<<<<<<<<<<<<<<<<<XXX : ",
" : XXXXXXXXXXXXXXXXXXXXXXXX 333333.@@@@@@@..@@@@@@..333333333333333333333333..@@@@@@..@@@@@@@.333333  <<<<<<<<<<<<<<<<<<<<XXX : ",
" : X%%%%X%%%%X%%%%%%%%X%%%X 333333.@@@@@@@..@@@@@@..333333333333333333333333..@@@@@@..@@@@@@@.333333  <<<<<<<<<<<<<<<<<<<<%%% : ",
" : X%%%%X%%%%X%%%%%%%%X%%%X 333333.@@@@@@@..@@@@@@..333333333333333333333333..@@@@@@..@@@@@@@.333333  <<<<<<<<<<<<<<<<<<<<%%% : ",
" : XXXXXXXXXXXX ========= X 333333.+++++++..++++++..333333333333333333333333..++++++..+++++++.333333  <<<<<<<<<<<<<<<<<<<<XXX : ",
" : XXXXXXXXXXXX           X 333333.@@@@@@@..@@@@@@..333333333333333333333333..@@@@@@..@@@@@@@.333333  >>>>>>>>>>>>>>>>>>>>XXX : ",
" : %%%%%%%X%%%% ========= X 333333.+++++++..++++++..333333333333333333333333..++++++..+++++++.333333                      X%% : ",
" : %%%%%%%X%%%%           X 333333.+++++++..++++++..333333333333333333333333..++++++..+++++++.333333  >>>>>>>>>>>>>>>>>>>>X%% : ",
" : XXXXXXXXXXXX           X 333333.+++++++..++++++..333333333333333333333333..++++++..+++++++.333333  <<<<<<<<<<<<<<<<<<<<XXX : ",
" : XXXXXXXXXXXX ********* X 333333.+++++++..++++++..333333333333333333333333..++++++..+++++++.333333                      XXX : ",
" : X%%%%X%%%%X% ::11111:: X 333333.+++++++..++++++..333333333333333333333333..++++++..+++++++.333333  <<<<<<<<  ><<<<<<<<<%%% : ",
" : X%%%%X%%%%X% ::11111:: X 333333.+++++++..++++++..333333333333333333333333..++++++..+++++++.333333  <<<<<<<<  ><<<<<<<<<%%% : ",
" : :::::::::::: :::   ::: % 333333.+++++++..++++++..333333333333333333333333..++++++..+++++++.333333  <<<<<<<<  ><<<<<<<<<::: : ",
" : :::::::::::: ::    ::: % 333333.+++++++..++++++..333333333333333333333333..++++++..+++++++.333333  <<<<<<<<  ><<<<<<<<<::: : ",
" : :::::::::::: ::    ::: % 333333.+++++++..++++++..333333333333333333333333..++++++..+++++++.333333  <<<<<<<<  ><<<<<<<<<::: : ",
" :              ::     ::   333333..................333333333333333333333333..................333333  <<<<<<<<  ><<<<<<<<<    : ",
" : OOooOO-OOooO ::     :: O 333333333333333333333333333333333333333333333333333333333333333333333333  <<<<<<<<  ><<<<<<<<<oOo : ",
" : ooooO-OO-Oo- ::.... :: - 333333333333333333333333333333333333333333333333333333333333333333333333  <<<<<<<<  ><<<<<<<<<-OO : ",
" : -O-oo-oO-oOO           - 333333333333333333333333333333333333333333333333333333333333333333333333  <<<<<<<<  ><<<<<<<<<-oO : ",
" : ooOOOoOO-OOo-o-ooOoOoOO- 333333333333333333333333333333333333333333333333333333333333333333333333  <<<<<<<<  ><<<<<<<<<o-O : ",
" : oOoo-oo-oO-OooOoOoo-oo-o 333333333333333333333333333333333333333333333333333333333333333333333333  <<<<<<    > <<<<<<<<oOo : ",
" : Oo-OOoooOOOoOO-Oo-oOoooO 333333333333333333333333333333333333333333333333333333333333333333333333  <<<<<<    > <<<<<<<<O-- : ",
" : ooOO-oooOO--o-oooOO-oo-O 333333333333333333333333333333333333333333333333333333333333333333333333  <<<<<<<<  ><<<<<<<<<-oO : ",
" : OOooOoOooOoo-oOOOooOoOoo 333333333333333333333333333333333333333333333333333333333333333333333333  ,,,,,,,,  >,,,,,,,,,oOo : ",
" : oO-Oo-oOooooOO-oO-Oo-ooo $$$$$$..................$$$$$$$$$$$$$$$$$$$$$$$$..................$$$$$$  ,,,,,,,,  >,,,,,,,,,O-O : ",
" : OoOOOOO-oOOOoOoOoOoOOOoo 333333..................33$333333333333333333333..................333333  ,,,,,,,,  >,,,,,,,,,OoO : ",
" : OOoooO-OOOo-O-oOOoooO-oO 333333..................33$333333333333333333333..................333333  ,,,,,,,,  >,,,,,,,,,-oO : ",
" : o-ooOO-oO-OoO--o-o-OO-OO 333333.5555555..555555..33$333333333333333333333..555555..5555555.333333  ,,,,,,,,  >,,,,,,,,,--O : ",
" : o-O-ooO-oOoo-o-o-OOooOOo 333333.4444444..444444..33$333XXXXXXXXXXXX333333..444444..4444444.333333  ,,,,,,,,  >,,,,,,,,,o-o : ",
" : OOooOO-OOooO-oOOOoOOO-oO 333333.4444444..444444..33$333%%%%%%%%%%%%333333..444444..4444444.333333  ,,,,,,,,  >,,,,,,,,,oOo : ",
" : ooooO-OO-Oo-o-OoooOO-OO- 333333.4444444..444444..33$333%%%%%%%%%%%%333333..444444..4444444.333333  ,,,,,,,,  >,,,,,,,,,-OO : ",
" : -O-oo-oO-oOOO-o-O-Oo-o-- 333333.4444444..444444..33$333%%%%%%%%%%%%333333..444444..4444444.333333                      -oO : ",
" : oO-oooOooOooooOoO--ooOOo 333333.4444444..444444..33$333%%%%%%%%%%%%333333..444444..4444444.333333 OoOoOooOOO--ooOOoOoOooOO : ",
" : oOoo-oo-oO-OooOoOoo-oo-o 333333.4444444..444444..33$333%%%%%%%%%%%%333333..444444..4444444.333333 -oO-OooOoOooooo--O-OOoOo : ",
" : Oo-OOoooOOOoOO-Oo-oOoooO 333333.4444444..444444..33$333%%%%%%%%%%%%333333..444444..4444444.333333 oOOO-OO--o-oOooooOO-oO-- : ",
" : ooOO-oooOO--o-oooOO-oo-O 333333.4444444..444444..33$333%%%%%%%%%%%%333333..444444..4444444.333333 -OO-oo-oOoOOOoo-oO-o--oO : ",
" : OOOooooOO-OooooOOOooooOO 333333.;;;;;;;..;;;;;;..33$333%%%%%%%%%%%%333333..;;;;;;..;;;;;;;.333333 OO-OOooooOOooooOO-OOoooo : ",
" : oO-Oo-oOooooOO-oO-Oo-ooo 333333.4444444..444444..33$333%    %%%%%%%333333..444444..4444444.333333 ooooOOO-OO-OO-ooOooOoO-O : ",
" : OoOOOOO-oOOOoOoOoOoOOOoo 333333.;;;;;;;..;;;;;;..33$333% ## %%%%%%%333333..;;;;;;..;;;;;;;.333333 ooOO-oOoOoOoOOOo-OO-OOoO : ",
" : OOoooO-OOOo-O-oOOoooO-oO 333333.;;;;;;;..;;;;;;..33$333% ## %%%%%%%333333..;;;;;;..;;;;;;;.333333 oOOooO-oOOoooO-oOOoo--oO : ",
" : OoO-oOO-OoO-ooOOoOooOOoO 333333.;;;;;;;..;;;;;;..33$333% ## %%%%%%%333333..;;;;;;..;;;;;;;.333333 oOoOoooOOoOo-OOo-oOo-oOO : ",
" : o-O-ooO-oOoo-o-o-OOooOOo 333333.;;;;;;;..;;;;;;..33$333% .. %%%%%%%333333..;;;;;;..;;;;;;;.333333 OoOoO-o-o-OO-oOO-OoOoo-o : ",
" : OOooOO-OOooO-oOOOoOOO-oO 333333.;;;;;;;..;;;;;;..33$333% .. %%%%%%%333333..;;;;;;..;;;;;;;.333333 oOooo-oOoOoOoO-oOoooOoOo : ",
" : ooooO-OO-Oo-o-OoooOO-OO- 333333.;;;;;;;..;;;;;;..33$333%    %%%%%%%333333..;;;;;;..;;;;;;;.333333 O-Oo-o-OOooOo-OOOOo---OO : ",
" : ooOOOoOO-OOo-o-ooOoOoOO- 333333.;;;;;;;..;;;;;;..33$333%%%%%%%%%%%%333333..;;;;;;..;;;;;;;.333333 O-OOO-o-OoOoOoOOOOOOoo-O : ",
" : oO-oooOooOooooOoO--ooOOo 333333.;;;;;;;..;;;;;;..33$333%%%%%%%%%%%%333333..;;;;;;..;;;;;;;.333333 OoOoOooOOO--ooOOoOoOooOO : ",
" : oOoo-oo-oO-OooOoOoo-oo-o 333333.;;;;;;;..;;;;;;..33$333%%%%%%%%%%%%333333..;;;;;;..;;;;;;;.333333 -oO-OooOoOooooo--O-OOoOo : ",
" : Oo-OOoooOOOoOO-Oo-oOoooO 333333..................33$333%%%%%%%%%%%%333333..................333333 oOOO-OO--o-oOooooOO-oO-- : ",
" : oOooOoOoooOOooooOo-OoOOo                           $333%%%%%%%%%%%%3333                           ooOoO-oOoOooooOooOoOooOo : ",
" : ooooO-OOooooOOOOOooooOOo 33333333333333333333333333$333%%%%%%%%%%%%333333333333333333333333333333 OO-OOooooOOooooOO-OOoooo : ",
" : OOOoOOo-OOoooOooOoO-OoOO 33333333333333333333333333$333%%%%%%%%%%%%333333333333333333333333333333 ooooOOO-OO-OO-ooOooOoO-O : ",
" : OoOO-OOOoOOOo-oO-OooOOoo 33333333333333333333333333$333%%%%%%%%%%%%333333333333333333333333333333 ooOO-oOoOoOoOOOo-OO-OOoO : ",
" : O--ooOoo-oO-OoOOooO-Oo-- $$$$$$$$$$$$$$$$$$$$$$$$$$$$$$%%%%%%%%%%%%$$$$$$$$$$$$$$$$$$$$$$$$$$$$$$ OO-OoO--O-o-oO-Oo-Ooo--O : ",
" : OOo-oOOOo-oOo-OOo-oOOOoo                                                                          oOoOoooOOoOo-OOo-oOo-oOO : ",
" : o-ooOooOO-oOO-ooOo--oo-O-ooO-oOOo-ooo-O-ooO-oOoo-o-%%%%%%%%%%%%%%%%%%%%ooOOoOoO-o-o-OO-oOO-OoOoo-oOoOoO-o-o-OO-oOO-OoOoo-o : ",
" : oOoOoOOoOoO-oOOooO-OoOOOoOOoOOooO-ooOOooOO-OOooO-oO%::::::%%::%%::::::%OO-oOooo-oOoOoOoO-oOoooOoOooOooo-oOoOoOoO-oOoooOoOo : ",
" : Oo-OoO--Oooo-O-OoOOoO-OOoo--O-ooOO-O-O-oo-oO-oOOO-o%::::::%%::%%::::::%o-o--oOoO-oOO-Oo-o-OoOoO-oO--oOoO-oOO-Oo-o-OoOoO-oO : ",
" : O-ooOOoOoOOOOO-OOo--OoooOOoOO-OOo-oOooOOOoOO-OOo-o-%%%%%%%%%%%%%%%%%%%%OoOO-OOO-o-OoOoOoOOOOOOoo-OO-OOO-o-OoOoOoOOOOOOoo-O : ",
" : OOooOoo--ooOOoooOooOOoO-oooOooOOoooOoO-oooOooOooooO%::::::%%::%%::::::%ooOOoOoOooOOO--ooOOoOoOooOOOoOoOooOOO--ooOOoOoOooOO : ",
" : oOoOO-oooo-o--o-OOoOooOoo-o--oOOOooooOoo-oo-oO-OooO%::::::%%::%%::::::%-oo-oO-OooOoOooooo--O-OOoOo-oO-OooOoOooooo--O-OOoOo : ",
" :                                                    %%%%%%%%%%%%%%%%%%%%                                                    : ",
" :::::::::::::::::::::::::::::::::::::::::::::::::::::%::::::%%::%%::::::%::::::::::::::::::::::::::::::::::::::::::::::::::::: ",
" :::::::::::::::::::::::::::::::::::::::::::::::::::::%::::::%%::%%::::::%::::::::::::::::::::::::::::::::::::::::::::::::::::: ",
"                                                      %::::::%%::%%::::::%                                                      ",
" X%%%%%%%%X%%%%X%%%%X%%%%X%%%%%%%%X%%%%X%%%%X%%%%X%%%%                    X%%%%X%%%%X%%%%X%%%%%%%%X%%%%X%%%%X%%%%X%%%%%%%%X%%%% ",
" X%%%%%%%%X%%%%X%%%%X%%%%X%%%%%%%%X%%%%X%%%%X%%%%X%%%%%: :: :%%  %%: :: :%X%%%%X%%%%X%%%%X%%%%%%%%X%%%%X%%%%X%%%%X%%%%%%%%X%%%% ",
" X%%%%%%%%X%%%%X%%%%X%%%%X%%%%%%%%X%%%%X%%%%X%%%%X%%%%%: :: :%%  %%: :: :%X%%%%X%%%%X%%%%X%%%%%%%%X%%%%X%%%%X%%%%X%%%%%%%%X%%%% ",
" XXXXXXXXXXXXXXXXXXXXXXXXXXXXXXXXXXXXXXXXXXXXXXXXXXXXX####################XXXXXXXXXXXXXXXXXXXXXXXXXXXXXXXXXXXXXXXXXXXXXXXXXXXXX ",
" %%X%%%%X%%%%X%%%%%%%%X%%%%X%%%%X%%%%X%%%%%%%%X%%%%X%%%: :: :%%  %%: :: :%%%%X%%%%%%%%X%%%%X%%%%X%%%%X%%%%%%%%X%%%%X%%%%X%%%%X% ",
" %%X%%%%X%%%%X%%%%%%%%X%%%%X%%%%X%%%%X%%%%%%%%X%%%%X%%%: :: :%%  %%: :: :%%%%X%%%%%%%%X%%%%X%%%%X%%%%X%%%%%%%%X%%%%X%%%%X%%%%X% ",
" %%X%%%%X%%%%X%%%%%%%%X%%%%X%%%%X%%%%X%%%%%%%%X%%%%X%%####################%%%X%%%%%%%%X%%%%X%%%%X%%%%X%%%%%%%%X%%%%X%%%%X%%%%X% ",
" XXXXXXXXXXXXXXXXXXXXXXXXXXXXXXXXXXXXXXXXXXXXXXXXXXXXX                    XXXXXXXXXXXXXXXXXXXXXXXXXXXXXXXXXXXXXXXXXXXXXXXXXXXXX ",
" X%%%%%%%%X%%%%X%%%%X%%%%X%%%%%%%%X%%%%X%%%%X%%%%X%%%%%: :: :%%  %%: :: :%X%%%%X%%%%X%%%%X%%%%%%%%X%%%%X%%%%X%%%%X%%%%%%%%X%%%% ",
" X%%%%%%%%X%%%%X%%%%X%%%%X%%%%%%%%X%%%%X%%%%X%%%%X%%%%####################X%%%%X%%%%X%%%%X%%%%%%%%X%%%%X%%%%X%%%%X%%%%%%%%X%%%% ",
" X%%%%%%%%X%%%%X%%%%X%%%%X%%%%%%%%X%%%%X%%%%X%%%%X%%%%                    X%%%%X%%%%X%%%%X%%%%%%%%X%%%%X%%%%X%%%%X%%%%%%%%X%%%% ",
" XXXXXXXXXXXXXXXXXXXXXXXXXXXXXXXXXXXXXXXXXXXXXXXXXXXXX%: :: :%%  %%: :: :%XXXXXXXXXXXXXXXXXXXXXXXXXXXXXXXXXXXXXXXXXXXXXXXXXXXXX ",
" %%X%%%%X%%%%X%%%%%%%%X%%%%X%%%%X%%%%X%%%%%%%%X%%%%X%%####################%%%X%%%%%%%%X%%%%X%%%%X%%%%X%%%%%%%%X%%%%X%%%%X%%%%X% ",
" %%X%%%%X%%%%X%%%%%%%%X%%%%X%%%%X%%%%X%%%%%%%%X%%%%X%%                    %%%X%%%%%%%%X%%%%X%%%%X%%%%X%%%%%%%%X%%%%X%%%%X%%%%X% ",
" %%X%%%%X%%%%X%%%%%%%%X%%%%X%%%%X%%%%X%%%%%%%%X%%%%X%%%: :: :%%  %%: :: :%%%%X%%%%%%%%X%%%%X%%%%X%%%%X%%%%%%%%X%%%%X%%%%X%%%%X% ",
" XXXXXXXXXXXXXXXXXXXXXXXXXXXXXXXXXXXXXXXXXXXXXXXXXXXXX%: :: :%%  %%: :: :%XXXXXXXXXXXXXXXXXXXXXXXXXXXXXXXXXXXXXXXXXXXXXXXXXXXXX ",
" X%%%%%%%%X%%%%X%%%%X%%%%X%%%%%%%%X%%%%X%%%%X%%%%X%%%%                    X%%%%X%%%%X%%%%X%%%%%%%%X%%%%X%%%%X%%%%X%%%%%%%%X%%%% ",
" X%%%%%%%%X%%%%X%%%%X%%%%X%%%%%%%%X%%%%X%%%%X%%%%X%%%%%: :: :%%  %%: :: :%X%%%%X%%%%X%%%%X%%%%%%%%X%%%%X%%%%X%%%%X%%%%%%%%X%%%% ",
" X%%%%%%%%X%%%%X%%%%X%%%%X%%%%%%%%X%%%%X%%%%X%%%%X%%%%%: :: :%%  %%: :: :%X%%%%X%%%%X%%%%X%%%%%%%%X%%%%X%%%%X%%%%X%%%%%%%%X%%%% ",
" :::::::::::::::::::::::::::::::::::::::::::::::::::::####################::::::::::::::::::::::::::::::::::::::::::::::::::::: ",
" :::::::::::::::::::::::::::::::::::::::::::::::::::::%: :: :%%  %%: :: :%::::::::::::::::::::::::::::::::::::::::::::::::::::: ",
"                                                                                                                                "
};
