/* XPM */
static char *a2V5[] = {
/* columns rows colors chars-per-pixel */
"128 128 4 1 ",
"  c #BFA100",
". c gold",
"X c white",
"o c None",
/* pixels */
"oooooooooooo                                                                                                       ooooooooooooo",
"oooooooooooo                                                                                                       ooooooooooooo",
"oooooooooooo                                                                                                       ooooooooooooo",
"oooooooooooo                                                                                                       ooooooooooooo",
"oooo        .......................................................................XXXXXXXXXXXXXXXXXXXXXXXX........        ooooo",
"oooo        .......................................................................XXXXXXXXXXXXXXXXXXXXXXXX........        ooooo",
"oooo        .......................................................................XXXXXXXXXXXXXXXXXXXXXXXX........        ooooo",
"oooo        .......................................................................XXXXXXXXXXXXXXXXXXXXXXXX........        ooooo",
"    ...................................................................................XXXXXXXXXXXXXXXXXXXXXXXX............    o",
"    ...................................................................................XXXXXXXXXXXXXXXXXXXXXXXX............    o",
"    ...................................................................................XXXXXXXXXXXXXXXXXXXXXXXX............    o",
"    ...................................................................................XXXXXXXXXXXXXXXXXXXXXXXX............    o",
"    ............XXXXXXXXXXXXXXXX...........................................................XXXXXXXXXXXXXXXXXXXXXXXX........    o",
"    ............XXXXXXXXXXXXXXXX...........................................................XXXXXXXXXXXXXXXXXXXXXXXX........    o",
"    ............XXXXXXXXXXXXXXXX...........................................................XXXXXXXXXXXXXXXXXXXXXXXX........    o",
"    ............XXXXXXXXXXXXXXXX...........................................................XXXXXXXXXXXXXXXXXXXXXXXX........    o",
"    ........XXXX...........................................................................XXXXXXXXXXXXXXXXXXXXXXXXXXXX....    o",
"    ........XXXX...........................................................................XXXXXXXXXXXXXXXXXXXXXXXXXXXX....    o",
"    ........XXXX...........................................................................XXXXXXXXXXXXXXXXXXXXXXXXXXXX....    o",
"    ........XXXX...........................................................................XXXXXXXXXXXXXXXXXXXXXXXXXXXX....    o",
"    ...........................................................................................XXXXXXXXXXXXXXXXXXXXXXXXXXXX    o",
"    ...........................................................................................XXXXXXXXXXXXXXXXXXXXXXXXXXXX    o",
"    ...........................................................................................XXXXXXXXXXXXXXXXXXXXXXXXXXXX    o",
"    ...........................................................................................XXXXXXXXXXXXXXXXXXXXXXXXXXXX    o",
"    ...............................................................................................XXXXXXXXXXXXXXXXXXXXXXXX    o",
"    ...............................................................................................XXXXXXXXXXXXXXXXXXXXXXXX    o",
"    ...............................................................................................XXXXXXXXXXXXXXXXXXXXXXXX    o",
"    ...............................................................................................XXXXXXXXXXXXXXXXXXXXXXXX    o",
"    ............................                                                                   ....XXXXXXXXXXXXXXXXXXXX    o",
"    ............................                                                                   ....XXXXXXXXXXXXXXXXXXXX    o",
"    ............................                                                                   ....XXXXXXXXXXXXXXXXXXXX    o",
"    ............................                                                                   ....XXXXXXXXXXXXXXXXXXXX    o",
"    XXXX....................                                                                           ....XXXXXXXXXXXXXXXX    o",
"    XXXX....................                                                                           ....XXXXXXXXXXXXXXXX    o",
"    XXXX....................                                                                           ....XXXXXXXXXXXXXXXX    o",
"    XXXX....................                                                                           ....XXXXXXXXXXXXXXXX    o",
"    XXXXXXXX................        ...........................................................        ........XXXXXXXXXXXX    o",
"    XXXXXXXX................        ...........................................................        ........XXXXXXXXXXXX    o",
"    XXXXXXXX................        ...........................................................        ........XXXXXXXXXXXX    o",
"    XXXXXXXX................        ...........................................................        ........XXXXXXXXXXXX    o",
"    XXXXXXXXXXXX............        ...........................................................        ........XXXXXXXXXXXX    o",
"    XXXXXXXXXXXX............        ...........................................................        ........XXXXXXXXXXXX    o",
"    XXXXXXXXXXXX............        ...........................................................        ........XXXXXXXXXXXX    o",
"    XXXXXXXXXXXX............        ...........................................................        ........XXXXXXXXXXXX    o",
"    XXXXXXXXXXXXXXXX........        ...........................................................        ............XXXXXXXX    o",
"    XXXXXXXXXXXXXXXX........        ...........................................................        ............XXXXXXXX    o",
"    XXXXXXXXXXXXXXXX........        ...........................................................        ............XXXXXXXX    o",
"    XXXXXXXXXXXXXXXX........        ...........................................................        ............XXXXXXXX    o",
"    XXXXXXXXXXXXXXXXXXXXXXXX        ...........................................................        ................XXXX    o",
"    XXXXXXXXXXXXXXXXXXXXXXXX        ...........................................................        ................XXXX    o",
"    XXXXXXXXXXXXXXXXXXXXXXXX        ...........................................................        ................XXXX    o",
"    XXXXXXXXXXXXXXXXXXXXXXXX        ...........................................................        ................XXXX    o",
"    XXXXXXXXXXXXXXXXXXXXXXXX        ...........................................................        ....................    o",
"    XXXXXXXXXXXXXXXXXXXXXXXX        ...........................................................        ....................    o",
"    XXXXXXXXXXXXXXXXXXXXXXXX        ...........................................................        ....................    o",
"    XXXXXXXXXXXXXXXXXXXXXXXX        ...........................................................        ....................    o",
"    ....XXXXXXXXXXXXXXXXXXXX        XXXX.......................................................        ....................    o",
"    ....XXXXXXXXXXXXXXXXXXXX        XXXX.......................................................        ....................    o",
"    ....XXXXXXXXXXXXXXXXXXXX        XXXX.......................................................        ....................    o",
"    ....XXXXXXXXXXXXXXXXXXXX        XXXX.......................................................        ....................    o",
"    ........XXXXXXXXXXXXXXXX        XXXXXXXX...................................................        ....................    o",
"    ........XXXXXXXXXXXXXXXX        XXXXXXXX...................................................        ....................    o",
"    ........XXXXXXXXXXXXXXXX        XXXXXXXX...................................................        ....................    o",
"    ........XXXXXXXXXXXXXXXX        XXXXXXXX...................................................        ....................    o",
"    ........XXXXXXXXXXXXXXXX        XXXXXXXX...................................................        ....................    o",
"    ........XXXXXXXXXXXXXXXX        XXXXXXXX...................................................        ....................    o",
"    ........XXXXXXXXXXXXXXXX        XXXXXXXX...................................................        ....................    o",
"    ........XXXXXXXXXXXXXXXX        XXXXXXXX...................................................        ....................    o",
"    ............XXXXXXXXXXXX        XXXXXXXXXXXX...............................................        ....................    o",
"    ............XXXXXXXXXXXX        XXXXXXXXXXXX...............................................        ....................    o",
"    ............XXXXXXXXXXXX        XXXXXXXXXXXX...............................................        ....................    o",
"    ............XXXXXXXXXXXX        XXXXXXXXXXXX...............................................        ....................    o",
"    ................XXXXXXXX        XXXXXXXXXXXXXXXX...........................................        ....................    o",
"    ................XXXXXXXX        XXXXXXXXXXXXXXXX...........................................        ....................    o",
"    ................XXXXXXXX        XXXXXXXXXXXXXXXX...........................................        ....................    o",
"    ................XXXXXXXX        XXXXXXXXXXXXXXXX...........................................        ....................    o",
"    ....................XXXX        XXXXXXXXXXXXXXXXXXXX.......................................        ....................    o",
"    ....................XXXX        XXXXXXXXXXXXXXXXXXXX.......................................        ....................    o",
"    ....................XXXX        XXXXXXXXXXXXXXXXXXXX.......................................        ....................    o",
"    ....................XXXX        XXXXXXXXXXXXXXXXXXXX.......................................        ....................    o",
"    ........................        XXXXXXXXXXXXXXXXXXXXXXXX...................................        ....................    o",
"    ........................        XXXXXXXXXXXXXXXXXXXXXXXX...................................        ....................    o",
"    ........................        XXXXXXXXXXXXXXXXXXXXXXXX...................................        ....................    o",
"    ........................        XXXXXXXXXXXXXXXXXXXXXXXX...................................        ....................    o",
"    ........................        XXXXXXXXXXXXXXXXXXXXXXXXXXXX...............................        ....................    o",
"    ........................        XXXXXXXXXXXXXXXXXXXXXXXXXXXX...............................        ....................    o",
"    ........................        XXXXXXXXXXXXXXXXXXXXXXXXXXXX...............................        ....................    o",
"    ........................        XXXXXXXXXXXXXXXXXXXXXXXXXXXX...............................        ....................    o",
"    ........................        XXXXXXXXXXXXXXXXXXXXXXXXXXXXXXX............................        ....................    o",
"    ........................        XXXXXXXXXXXXXXXXXXXXXXXXXXXXXXX............................        ....................    o",
"    ........................        XXXXXXXXXXXXXXXXXXXXXXXXXXXXXXX............................        ....................    o",
"    ........................        XXXXXXXXXXXXXXXXXXXXXXXXXXXXXXX............................        ....................    o",
"    ........................        ....XXXXXXXXXXXXXXXXXXXXXXXXXXX............................        ....................    o",
"    ........................        ....XXXXXXXXXXXXXXXXXXXXXXXXXXX............................        ....................    o",
"    ........................        ....XXXXXXXXXXXXXXXXXXXXXXXXXXX............................        ....................    o",
"    ........................        ....XXXXXXXXXXXXXXXXXXXXXXXXXXX............................        ....................    o",
"    ........................                                                                           ....................    o",
"    ........................                                                                           ....................    o",
"    ........................                                                                           ....................    o",
"    ........................                                                                           ....................    o",
"    ............................                                                                   ........................    o",
"    ............................                                                                   ........................    o",
"    ............................                                                                   ........................    o",
"    ............................                                                                   ........................    o",
"    ........XXXX................................XXXXXXXXXXXXXXXXXXXXXXXXXXXXXXX....................................XXXX....    o",
"    ........XXXX................................XXXXXXXXXXXXXXXXXXXXXXXXXXXXXXX....................................XXXX....    o",
"    ........XXXX................................XXXXXXXXXXXXXXXXXXXXXXXXXXXXXXX....................................XXXX....    o",
"    ........XXXX................................XXXXXXXXXXXXXXXXXXXXXXXXXXXXXXX....................................XXXX....    o",
"    ....XXXX........................................XXXXXXXXXXXXXXXXXXXXXXXXXXXXXXX................................XXXX....    o",
"    ....XXXX........................................XXXXXXXXXXXXXXXXXXXXXXXXXXXXXXX................................XXXX....    o",
"    ....XXXX........................................XXXXXXXXXXXXXXXXXXXXXXXXXXXXXXX................................XXXX....    o",
"    ....XXXX........................................XXXXXXXXXXXXXXXXXXXXXXXXXXXXXXX................................XXXX....    o",
"    ........XXXXXXXX....................................XXXXXXXXXXXXXXXXXXXXXXXXXXXXXXX........................XXXX........    o",
"    ........XXXXXXXX....................................XXXXXXXXXXXXXXXXXXXXXXXXXXXXXXX........................XXXX........    o",
"    ........XXXXXXXX....................................XXXXXXXXXXXXXXXXXXXXXXXXXXXXXXX........................XXXX........    o",
"    ........XXXXXXXX....................................XXXXXXXXXXXXXXXXXXXXXXXXXXXXXXX........................XXXX........    o",
"    ................XXXX....................................XXXXXXXXXXXXXXXXXXXXXXXXXXXXXXX................XXXX............    o",
"    ................XXXX....................................XXXXXXXXXXXXXXXXXXXXXXXXXXXXXXX................XXXX............    o",
"    ................XXXX....................................XXXXXXXXXXXXXXXXXXXXXXXXXXXXXXX................XXXX............    o",
"    ................XXXX....................................XXXXXXXXXXXXXXXXXXXXXXXXXXXXXXX................XXXX............    o",
"oooo        .......................................................XXXXXXXXXXXXXXXXXXXXXXXXXXXX....................        ooooo",
"oooo        .......................................................XXXXXXXXXXXXXXXXXXXXXXXXXXXX....................        ooooo",
"oooo        .......................................................XXXXXXXXXXXXXXXXXXXXXXXXXXXX....................        ooooo",
"oooo        .......................................................XXXXXXXXXXXXXXXXXXXXXXXXXXXX....................        ooooo",
"oooooooooooo                                                                                                       ooooooooooooo",
"oooooooooooo                                                                                                       ooooooooooooo",
"oooooooooooo                                                                                                       ooooooooooooo",
"oooooooooooo                                                                                                       ooooooooooooo"
};
